<?xml version="1.0" encoding="UTF-8"?>
<svg xmlns="http://www.w3.org/2000/svg" width="500" height="3000"><g transform="translate(30, 100)"><!--ebb: Timeline line!--><line x1="105" x2="105" y1="0" y2="2555" style="stroke:coral;stroke-width:30;"/><!--ebb: Haydon line--><line x1="180" x2="180" y1="409" y2="2099" style="stroke:green; stroke-width:15;"/><text x="200" y="409">First letter: 1819-02-13</text><text x="200" y="2099">Last letter: 1823-10-01</text><text x="200" y="709" transform="rotate(90, 200, 709)">Haydon Correspondence
</text><g><!--ebb: horizontal hashmark for each year--><line x1="80" y1="0" x2="180" y2="0" style="stroke:black;"/><text x="30" y="0">1818</text><!--ebb: circles for letters count--><circle cx="105" cy="0" r="1" style="fill:white;stroke:black;"/><text x="-25" y="30">Letters coded: 1</text></g><g><!--ebb: horizontal hashmark for each year--><line x1="80" y1="365" x2="180" y2="365" style="stroke:black;"/><text x="30" y="365">1819</text><!--ebb: circles for letters count--><circle cx="105" cy="365" r="18" style="fill:white;stroke:black;"/><text x="-25" y="395">Letters coded: 18</text></g><g><!--ebb: horizontal hashmark for each year--><line x1="80" y1="730" x2="180" y2="730" style="stroke:black;"/><text x="30" y="730">1820</text><!--ebb: circles for letters count--><circle cx="105" cy="730" r="10" style="fill:white;stroke:black;"/><text x="-25" y="760">Letters coded: 10</text></g><g><!--ebb: horizontal hashmark for each year--><line x1="80" y1="1095" x2="180" y2="1095" style="stroke:black;"/><text x="30" y="1095">1821</text><!--ebb: circles for letters count--><circle cx="105" cy="1095" r="17" style="fill:white;stroke:black;"/><text x="-25" y="1125">Letters coded: 17</text></g><g><!--ebb: horizontal hashmark for each year--><line x1="80" y1="1460" x2="180" y2="1460" style="stroke:black;"/><text x="30" y="1460">1822</text><!--ebb: circles for letters count--><circle cx="105" cy="1460" r="5" style="fill:white;stroke:black;"/><text x="-25" y="1490">Letters coded: 5</text></g><g><!--ebb: horizontal hashmark for each year--><line x1="80" y1="1825" x2="180" y2="1825" style="stroke:black;"/><text x="30" y="1825">1823</text><!--ebb: circles for letters count--><circle cx="105" cy="1825" r="4" style="fill:white;stroke:black;"/><text x="-25" y="1855">Letters coded: 4</text></g><g><!--ebb: horizontal hashmark for each year--><line x1="80" y1="2190" x2="180" y2="2190" style="stroke:black;"/><text x="30" y="2190">1824</text><!--ebb: circles for letters count--><circle cx="105" cy="2190" r="1" style="fill:white;stroke:black;"/><text x="-25" y="2220">Letters coded: 1</text></g><g><!--ebb: horizontal hashmark for each year--><line x1="80" y1="2555" x2="180" y2="2555" style="stroke:black;"/><text x="30" y="2555">1825</text><!--ebb: circles for letters count--><circle cx="105" cy="2555" r="4" style="fill:white;stroke:black;"/><text x="-25" y="2585">Letters coded: 4</text></g></g></svg>